PathFileType	3	(X/Y/Z)	D:\minhoCalibration\240510\subject1_KPNP\preferred\preferred13.trc
DataRate	CameraRate	NumFrames	NumMarkers	Units	OrigDataRate	OrigDataStartFrame	OrigNumFrames
200.0	200.0	27	10	mm	200.0	392	152	
Frame#	Time	Left_Ankle_Outer1			Left_Ankle_Inner1			Left_Knee_Outer1			Left_Knee_Inner1			Left_Wrist1			Right_Wrist1			Right_Knee_Inner1			Right_Knee_Outer1			Right_Ankle_Inner1			Right_Ankle_Outer1			
		X1	Y1	Z1	X2	Y2	Z2	X3	Y3	Z3	X4	Y4	Z4	X5	Y5	Z5	X6	Y6	Z6	X7	Y7	Z7	X8	Y8	Z8	X9	Y9	Z9	X10	Y10	Z10	
392	1.95	-502.79868	164.20796	-531.70667	-538.03632	171.59538	-487.27313	-347.65546	580.97333	-432.14047	-442.957	562.36517	-382.93716	-362.38788	1026.7147	-610.40607	-635.28949	1174.9984	-412.53894	-317.39749	960.64606	-120.34343	-399.25159	1024.2151	-71.081146	-399.47006	675.30341	221.67065	-445.51547	744.18939	296.396
393	1.955	-502.1832	163.78645	-532.33759	-537.47406	171.12497	-488.6683	-347.67142	580.71777	-431.53799	-443.55957	561.77039	-383.27667	-361.03598	1027.7037	-608.16895	-637.68677	1172.0016	-411.93979	-320.97202	955.0249	-119.58673	-406.20386	1014.8567	-69.750565	-407.30997	654.94409	209.76346	-457.85049	720.29993	285.99588
394	1.96	-501.26434	163.52609	-533.58063	-537.20837	170.89906	-489.76834	-347.20053	580.48901	-431.18243	-444.54211	561.13647	-383.5495	-360.55304	1028.1757	-605.09479	-639.9444	1168.682	-411.18896	-324.25055	948.935	-118.60338	-413.02646	1005.24	-68.730011	-416.18787	635.08417	197.67696	-470.63666	696.56805	274.56235
395	1.965	-500.65869	163.03462	-534.54498	-536.83759	170.4581	-490.8746	-347.07928	579.94788	-430.67398	-444.5047	560.28735	-383.65836	-359.55963	1028.6086	-602.37122	-641.66724	1165.3696	-410.90735	-327.26767	942.40228	-117.40658	-419.55252	995.3158	-67.968681	-425.34695	615.47675	184.58862	-483.01654	673.29596	261.86734
396	1.97	-500.51974	162.39499	-535.05939	-536.78223	169.9052	-492.21494	-346.81003	579.36572	-430.21985	-444.25012	559.78766	-384.00226	-358.44913	1028.8892	-599.65753	-643.19006	1161.9513	-410.71448	-331.35718	934.92999	-115.55268	-425.79364	985.09369	-67.495171	-435.32767	596.11298	171.29895	-496.06711	651.05377	248.94418
397	1.975	-500.18561	161.83842	-536.03143	-536.73364	169.42577	-493.30002	-346.49176	578.56927	-429.84723	-444.55939	558.5459	-384.31006	-357.27478	1029.0894	-597.00903	-644.67419	1158.5801	-410.53729	-335.48376	926.24445	-114.16668	-431.69168	974.39661	-67.285065	-445.67984	577.28113	157.00778	-508.75266	629.07025	234.89162
398	1.98	-499.94849	161.37723	-537.2309	-536.92157	168.87297	-494.33917	-346.07578	577.69928	-429.49393	-444.70395	557.66071	-384.19379	-356.21988	1029.0985	-594.43317	-645.84222	1155.3187	-410.80542	-339.77451	916.83228	-113.30447	-437.2139	963.38464	-67.270493	-456.47113	559.46844	141.78578	-521.66125	608.11792	220.67732
399	1.985	-500.20956	160.80507	-538.03693	-536.94171	168.18272	-495.29309	-345.58875	576.7663	-429.10535	-444.48114	556.66986	-384.07745	-355.11111	1028.9412	-591.93121	-647.07318	1152.0985	-411.11679	-344.28918	906.78223	-112.87567	-442.6662	952.45538	-67.383202	-467.83133	541.18036	127.09126	-534.54871	587.43408	205.34344
400	1.99	-500.50073	160.15111	-538.83948	-537.56525	167.46593	-496.41418	-345.08685	575.44025	-428.71704	-443.7356	555.49176	-384.2019	-354.09409	1028.6272	-589.46155	-648.27753	1148.8354	-411.45724	-349.01215	896.24561	-112.81539	-447.96338	941.22491	-67.711555	-479.68588	523.76569	111.61909	-547.5788	567.48816	189.67296
401	1.995	-501.18839	159.30228	-539.25134	-538.20618	166.82706	-497.26425	-344.37244	574.1651	-428.26447	-443.49857	554.2868	-383.66614	-353.15085	1028.0597	-587.00348	-649.76099	1145.6005	-411.60831	-353.922	885.42883	-113.10405	-453.15924	929.78534	-68.285583	-490.95926	507.07532	95.507835	-560.62787	548.14032	173.50204
402	2	-501.60312	158.66322	-540.3252	-538.62189	165.80515	-497.79529	-343.62033	572.76947	-427.63708	-442.8942	553.12878	-382.87936	-352.12848	1027.3883	-584.6004	-651.34314	1142.192	-411.90234	-358.96011	874.44934	-113.8687	-458.44974	918.30585	-69.209892	-502.4761	490.02039	78.634636	-573.86121	529.45129	157.03615
403	2.005	-502.24573	157.89198	-540.9729	-539.46246	164.95427	-498.42578	-342.81622	571.24603	-426.99741	-442.48431	551.53467	-382.09503	-351.29233	1026.5066	-582.2121	-652.76721	1138.6813	-412.36301	-364.1496	863.39026	-114.95634	-463.85403	906.79193	-70.541916	-514.25769	474.34503	61.996563	-586.63269	511.19345	139.63391
404	2.01	-502.9512	156.97328	-541.51135	-540.09656	164.21046	-499.03149	-342.06015	569.51691	-426.37073	-441.43961	549.68884	-381.35104	-350.33118	1025.397	-579.97083	-654.39471	1134.9785	-412.92496	-369.5433	852.27588	-116.29335	-469.43042	895.19208	-72.345718	-525.35699	458.96039	44.413216	-599.54401	493.58047	122.03423
405	2.015	-503.69312	156.06602	-541.99109	-541.14343	163.20816	-499.78973	-341.29529	567.76276	-425.50549	-440.98059	548.31042	-380.29651	-349.46729	1024.147	-577.74396	-655.82574	1130.9634	-413.37222	-375.07553	841.0708	-117.92352	-475.27539	883.63519	-74.49398	-536.75635	443.80954	26.688379	-612.52295	476.44986	104.13068
406	2.02	-504.46588	154.99976	-542.46533	-541.83508	162.23579	-500.30191	-340.64261	565.78247	-424.69962	-440.15131	546.57465	-379.26553	-348.69171	1022.6958	-575.50067	-657.11182	1126.738	-414.0625	-380.5929	829.91058	-119.89104	-481.30359	872.02728	-77.024803	-548.57202	429.47299	9.3083601	-624.89874	459.83203	85.360909
407	2.025	-505.21451	153.94435	-542.99048	-542.88574	161.06833	-501.02295	-340.08215	563.85364	-423.72092	-439.134	544.43256	-378.57748	-347.84595	1021.1005	-573.3905	-658.21698	1122.4335	-414.84271	-386.39938	818.56989	-122.00944	-487.63025	860.39862	-79.822083	-559.7099	415.49792	-8.9231253	-637.30511	444.10818	66.898262
408	2.03	-506.0513	152.7375	-543.53253	-543.65552	159.96582	-501.61588	-339.61008	561.77051	-422.71683	-438.58905	542.47937	-377.53397	-347.02826	1019.397	-571.35327	-659.40381	1117.8402	-415.62622	-392.3103	807.17609	-124.25421	-494.14127	848.64618	-82.862389	-570.47192	401.88095	-27.712889	-649.68091	429.07452	48.259281
409	2.035	-507.07703	151.2959	-543.8233	-544.7085	158.92056	-502.56543	-339.3291	559.5741	-421.51788	-438.2135	540.35364	-376.64151	-346.31116	1017.5874	-569.36682	-660.44	1112.9747	-416.43137	-398.53726	795.61749	-126.49799	-500.90503	836.86456	-85.756409	-581.78003	388.92111	-45.859776	-661.86121	414.45117	29.365204
410	2.04	-507.73157	149.98924	-544.88019	-546.20801	157.6259	-504.06491	-339.03391	557.34613	-420.31375	-438.45053	538.28125	-375.25488	-345.61386	1015.578	-567.51587	-661.43207	1108.1199	-417.42361	-404.88965	783.93567	-128.76082	-507.93094	824.89642	-89.140572	-591.81561	376.68628	-64.997108	-673.9259	400.26132	9.7155294
411	2.045	-508.47812	148.43234	-545.63306	-547.19806	156.08908	-505.17673	-339.01364	554.92865	-418.95407	-438.38065	536.15735	-374.27081	-344.76468	1013.5342	-565.75671	-662.18115	1102.9235	-418.48645	-411.51147	772.0603	-131.11795	-515.19904	812.7605	-92.739281	-602.93896	364.16064	-83.608307	-685.34991	386.57339	-9.8667994
412	2.05	-509.48389	146.4487	-546.20502	-548.28113	154.49937	-506.18188	-339.00043	552.50433	-417.50223	-438.76254	533.73376	-373.36996	-343.85574	1011.356	-564.13196	-662.82275	1097.7676	-419.62448	-418.31671	760.11499	-133.70486	-522.60791	800.55188	-96.630127	-612.4057	352.24448	-103.26636	-697.30872	373.61786	-29.733778
413	2.055	-509.9628	144.88321	-547.57159	-549.32318	152.67845	-507.48474	-339.27985	549.94269	-415.92639	-439.32797	531.14563	-372.58444	-342.86539	1009.0667	-562.50684	-663.33759	1092.501	-420.86353	-425.29999	748.11346	-136.63573	-530.13751	788.18958	-100.79583	-624.21967	340.96588	-120.87982	-707.90247	360.93149	-49.429569
414	2.06	-510.66907	142.96741	-548.65735	-550.1955	150.77263	-508.83401	-339.60889	547.31543	-414.29166	-440.10599	528.76642	-371.62592	-341.92383	1006.5759	-560.97565	-663.75677	1087.2985	-422.02142	-432.51883	736.10565	-139.93996	-537.82367	775.86688	-105.37491	-633.33539	330.47614	-140.12004	-718.5639	348.83725	-68.893211
415	2.065	-511.44708	140.79506	-549.36304	-551.255	148.91338	-510.23157	-340.03128	544.4574	-412.66666	-441.01318	526.03943	-370.90515	-341.03442	1004.0334	-559.43719	-664.04962	1082.0576	-423.20215	-439.8812	724.04108	-143.71886	-545.4978	763.4928	-110.3641	-640.43616	321.53906	-160.04582	-728.66382	336.99368	-88.153259
416	2.07	-511.75522	139.03769	-550.9212	-552.00232	146.98117	-511.68204	-340.57092	541.5459	-410.96884	-441.92499	523.37341	-370.20279	-340.31793	1001.3477	-557.97998	-664.23315	1076.8864	-424.3548	-447.38632	712.01996	-148.07428	-553.21179	751.16754	-115.75427	-652.31689	309.49594	-177.17365	-738.16711	325.6886	-107.17995
417	2.075	-512.1203	137.01491	-552.01825	-552.8183	144.88199	-513.19769	-341.05927	538.70758	-409.185	-443.10144	521.06042	-369.47925	-339.4032	998.65985	-556.68317	-664.31812	1071.7144	-425.58591	-454.99579	700.05713	-153.00427	-560.96484	738.92395	-121.54629	-659.45459	299.60211	-199.8412	-747.96313	314.58047	-125.55122
418	2.08	-512.43152	134.84264	-553.1402	-553.05542	142.47147	-514.27295	-341.65674	535.8147	-407.37906	-444.45166	518.40765	-369.27783	-338.60318	995.83752	-555.43323	-664.38043	1066.7069	-426.66006	-462.73477	688.14307	-158.48685	-568.77899	726.84845	-127.83823	-668.36023	290.01654	-217.32343	-756.61102	303.61374	-144.28851
